# xmcd CD database file
#
# Track frame offsets:
#	150
#	28429
#	45730
#	69425
#	92583
#	117783
#	135825
#	164552
#
# Disc length: 2427 seconds
#
# Revision: 1
# Processed by: cddbd v1.5.1PL0 Copyright (c) Steve Scherf et al.
# Submitted via: CDex 1.51
#
DISCID=66097908
DTITLE=ak（東方隔離郷） - 東方埋奏録
DYEAR=2004
DGENRE=Other
TTITLE0=Snowflakes〜妖々夢〜
TTITLE1=March of the Bogles〜妖魔夜行〜
TTITLE2=Mayohiga〜遠野幻想〜
TTITLE3=on a sea of clouds〜天空の花の都〜
TTITLE4=Septet Pour Une filles Deunte〜セプテット〜
TTITLE5=an Illusion, in the East〜紅楼〜
TTITLE6=Kakuri-Kyou〜アルティメットトゥルース〜
TTITLE7=Shrine Arch〜永遠の巫女〜
EXTD=YEAR: 2004
EXTT0=
EXTT1=
EXTT2=
EXTT3=
EXTT4=
EXTT5=
EXTT6=
EXTT7=
PLAYORDER=
